<?xml version="1.0" encoding="UTF-8"?>
<svg width="24px" height="27px" viewBox="0 0 24 27" version="1.1" xmlns="http://www.w3.org/2000/svg" xmlns:xlink="http://www.w3.org/1999/xlink">
    <!-- Generator: Sketch 53.2 (72643) - https://sketchapp.com -->
    <title>twitch</title>
    <desc>Created with Sketch.</desc>
    <g id="Page-1" stroke="none" stroke-width="1" fill="none" fill-rule="evenodd">
        <g id="Icons" transform="translate(-47.000000, -368.000000)" fill="#FFFFFF">
            <g id="Соединения" transform="translate(39.000000, 348.000000)">
                <g id="Твич">
                    <g id="twitch" transform="translate(8.000000, 20.000000)">
                        <path d="M1.30103806,-4.84945417e-13 L23.0934256,-4.84945417e-13 L23.0934256,15.3146067 L14.6366782,23.7865169 L10.083045,23.7865169 L7.48096886,26.3932584 L4.87889273,26.3932584 L4.87889273,23.7865169 L0.0292733564,23.7865169 L1.03561604e-12,4.23595506 L1.30103806,-4.84945417e-13 Z M21.5640138,13.7303371 L21.5640138,2 L4,2 L4,17.3146067 L8.87889273,17.3146067 L8.87889273,20.5730337 L12.1314879,17.3146067 L17.9861592,17.3146067 L21.5640138,13.7303371 Z M15,7 L17.2768166,7 L17.2768166,13.5168539 L15,13.5168539 L15,7 Z M9,7 L11.2768166,7 L11.2768166,13.5168539 L9,13.5168539 L9,7 Z" id="Combined-Shape"></path>
                    </g>
                </g>
            </g>
        </g>
    </g>
</svg>